<svg xmlns="http://www.w3.org/2000/svg" xmlns:xlink="http://www.w3.org/1999/xlink" width="500" zoomAndPan="magnify" viewBox="0 0 375 74.999997" height="100" preserveAspectRatio="xMidYMid meet" version="1.0"><defs><g/></defs><g fill="#014871" fill-opacity="1"><g transform="translate(8.738248, 50.835405)"><g><path d="M 0.46875 -31.625 C 0.46875 -32.0625 0.597656 -32.390625 0.859375 -32.609375 C 1.128906 -32.835938 1.484375 -32.988281 1.921875 -33.0625 C 2.359375 -33.144531 2.832031 -33.1875 3.34375 -33.1875 L 11.828125 -33.1875 C 12.179688 -33.1875 12.53125 -33.132812 12.875 -33.03125 C 13.21875 -32.9375 13.5 -32.773438 13.71875 -32.546875 C 13.945312 -32.328125 14.0625 -32.023438 14.0625 -31.640625 C 14.0625 -31.140625 14.019531 -30.738281 13.9375 -30.4375 C 13.851562 -30.132812 13.753906 -29.847656 13.640625 -29.578125 C 13.535156 -29.304688 13.441406 -28.972656 13.359375 -28.578125 C 13.273438 -28.191406 13.234375 -27.65625 13.234375 -26.96875 C 13.234375 -26.363281 13.28125 -25.738281 13.375 -25.09375 C 13.550781 -23.738281 13.894531 -22.097656 14.40625 -20.171875 C 14.925781 -18.242188 15.585938 -15.882812 16.390625 -13.09375 C 16.535156 -12.570312 16.6875 -12.132812 16.84375 -11.78125 C 17.007812 -11.4375 17.171875 -11.273438 17.328125 -11.296875 C 17.484375 -11.328125 17.628906 -11.519531 17.765625 -11.875 C 17.910156 -12.226562 18.039062 -12.640625 18.15625 -13.109375 C 18.53125 -14.484375 18.816406 -15.75 19.015625 -16.90625 C 19.210938 -18.0625 19.34375 -19.171875 19.40625 -20.234375 C 19.46875 -21.304688 19.46875 -22.382812 19.40625 -23.46875 C 19.34375 -24.550781 19.226562 -25.71875 19.0625 -26.96875 C 18.96875 -27.625 18.835938 -28.175781 18.671875 -28.625 C 18.515625 -29.082031 18.351562 -29.476562 18.1875 -29.8125 C 18.019531 -30.144531 17.875 -30.453125 17.75 -30.734375 C 17.625 -31.015625 17.5625 -31.3125 17.5625 -31.625 C 17.5625 -32.09375 17.695312 -32.4375 17.96875 -32.65625 C 18.25 -32.882812 18.59375 -33.03125 19 -33.09375 C 19.40625 -33.15625 19.796875 -33.1875 20.171875 -33.1875 L 28.921875 -33.1875 C 29.273438 -33.1875 29.625 -33.132812 29.96875 -33.03125 C 30.3125 -32.9375 30.59375 -32.773438 30.8125 -32.546875 C 31.039062 -32.328125 31.15625 -32.023438 31.15625 -31.640625 C 31.15625 -31.140625 31.113281 -30.738281 31.03125 -30.4375 C 30.945312 -30.132812 30.847656 -29.847656 30.734375 -29.578125 C 30.628906 -29.304688 30.535156 -28.972656 30.453125 -28.578125 C 30.367188 -28.191406 30.328125 -27.65625 30.328125 -26.96875 C 30.328125 -26.363281 30.375 -25.738281 30.46875 -25.09375 C 30.65625 -23.738281 31.003906 -22.097656 31.515625 -20.171875 C 32.023438 -18.242188 32.679688 -15.882812 33.484375 -13.09375 C 33.640625 -12.570312 33.796875 -12.132812 33.953125 -11.78125 C 34.117188 -11.4375 34.28125 -11.273438 34.4375 -11.296875 C 34.582031 -11.328125 34.722656 -11.519531 34.859375 -11.875 C 35.003906 -12.226562 35.140625 -12.640625 35.265625 -13.109375 C 35.628906 -14.484375 35.910156 -15.75 36.109375 -16.90625 C 36.316406 -18.0625 36.445312 -19.171875 36.5 -20.234375 C 36.5625 -21.304688 36.5625 -22.382812 36.5 -23.46875 C 36.445312 -24.550781 36.332031 -25.71875 36.15625 -26.96875 C 36.0625 -27.65625 35.945312 -28.191406 35.8125 -28.578125 C 35.6875 -28.972656 35.566406 -29.304688 35.453125 -29.578125 C 35.335938 -29.847656 35.238281 -30.132812 35.15625 -30.4375 C 35.070312 -30.738281 35.03125 -31.140625 35.03125 -31.640625 C 35.03125 -32.023438 35.140625 -32.328125 35.359375 -32.546875 C 35.585938 -32.773438 35.875 -32.9375 36.21875 -33.03125 C 36.5625 -33.132812 36.910156 -33.1875 37.265625 -33.1875 L 45.109375 -33.1875 C 45.628906 -33.1875 46.101562 -33.144531 46.53125 -33.0625 C 46.957031 -32.976562 47.304688 -32.820312 47.578125 -32.59375 C 47.847656 -32.375 47.984375 -32.050781 47.984375 -31.625 C 47.984375 -31.1875 47.914062 -30.8125 47.78125 -30.5 C 47.65625 -30.195312 47.484375 -29.90625 47.265625 -29.625 C 47.054688 -29.34375 46.816406 -29.015625 46.546875 -28.640625 C 46.285156 -28.265625 46.015625 -27.800781 45.734375 -27.25 C 45.460938 -26.707031 45.195312 -26.015625 44.9375 -25.171875 C 44.476562 -23.660156 44.082031 -22.335938 43.75 -21.203125 C 43.425781 -20.078125 43.128906 -19.054688 42.859375 -18.140625 C 42.597656 -17.234375 42.347656 -16.359375 42.109375 -15.515625 C 41.878906 -14.671875 41.640625 -13.785156 41.390625 -12.859375 C 41.148438 -11.941406 40.875 -10.910156 40.5625 -9.765625 C 40.257812 -8.628906 39.898438 -7.3125 39.484375 -5.8125 C 39.140625 -4.582031 38.84375 -3.585938 38.59375 -2.828125 C 38.34375 -2.078125 38.097656 -1.5 37.859375 -1.09375 C 37.628906 -0.6875 37.390625 -0.40625 37.140625 -0.25 C 36.890625 -0.09375 36.59375 -0.0078125 36.25 0 C 35.914062 0.0078125 35.515625 0.015625 35.046875 0.015625 L 30.703125 0.015625 C 30.234375 0.015625 29.828125 0.0078125 29.484375 0 C 29.140625 -0.0078125 28.828125 -0.09375 28.546875 -0.25 C 28.273438 -0.40625 28.007812 -0.6875 27.75 -1.09375 C 27.5 -1.5 27.238281 -2.078125 26.96875 -2.828125 C 26.707031 -3.585938 26.40625 -4.582031 26.0625 -5.8125 C 25.675781 -7.238281 25.332031 -8.492188 25.03125 -9.578125 C 24.738281 -10.660156 24.46875 -11.644531 24.21875 -12.53125 C 24.15625 -12.320312 24.097656 -12.101562 24.046875 -11.875 C 23.992188 -11.644531 23.929688 -11.40625 23.859375 -11.15625 C 23.648438 -10.414062 23.421875 -9.609375 23.171875 -8.734375 C 22.929688 -7.859375 22.664062 -6.882812 22.375 -5.8125 C 22.039062 -4.582031 21.742188 -3.585938 21.484375 -2.828125 C 21.234375 -2.078125 20.992188 -1.5 20.765625 -1.09375 C 20.535156 -0.6875 20.289062 -0.40625 20.03125 -0.25 C 19.78125 -0.09375 19.484375 -0.0078125 19.140625 0 C 18.804688 0.0078125 18.410156 0.015625 17.953125 0.015625 L 13.59375 0.015625 C 13.132812 0.015625 12.734375 0.0078125 12.390625 0 C 12.046875 -0.0078125 11.734375 -0.09375 11.453125 -0.25 C 11.179688 -0.40625 10.914062 -0.6875 10.65625 -1.09375 C 10.40625 -1.5 10.144531 -2.078125 9.875 -2.828125 C 9.601562 -3.585938 9.300781 -4.582031 8.96875 -5.8125 C 8.550781 -7.3125 8.1875 -8.628906 7.875 -9.765625 C 7.570312 -10.910156 7.296875 -11.941406 7.046875 -12.859375 C 6.804688 -13.785156 6.570312 -14.671875 6.34375 -15.515625 C 6.113281 -16.359375 5.863281 -17.234375 5.59375 -18.140625 C 5.332031 -19.054688 5.03125 -20.078125 4.6875 -21.203125 C 4.351562 -22.335938 3.957031 -23.660156 3.5 -25.171875 C 3.238281 -26.015625 2.96875 -26.707031 2.6875 -27.25 C 2.414062 -27.800781 2.144531 -28.265625 1.875 -28.640625 C 1.601562 -29.015625 1.359375 -29.34375 1.140625 -29.625 C 0.929688 -29.90625 0.765625 -30.195312 0.640625 -30.5 C 0.523438 -30.8125 0.46875 -31.1875 0.46875 -31.625 Z M 0.46875 -31.625 "/></g></g></g><g fill="#014871" fill-opacity="1"><g transform="translate(58.273063, 50.835405)"><g><path d="M 2.5625 -17.0625 C 2.5625 -18.65625 2.507812 -20.03125 2.40625 -21.1875 C 2.3125 -22.351562 2.179688 -23.347656 2.015625 -24.171875 C 1.859375 -25.003906 1.691406 -25.726562 1.515625 -26.34375 C 1.335938 -26.957031 1.164062 -27.515625 1 -28.015625 C 0.84375 -28.515625 0.710938 -29.007812 0.609375 -29.5 C 0.515625 -29.988281 0.46875 -30.535156 0.46875 -31.140625 C 0.46875 -31.691406 0.597656 -32.109375 0.859375 -32.390625 C 1.128906 -32.671875 1.457031 -32.867188 1.84375 -32.984375 C 2.238281 -33.109375 2.628906 -33.171875 3.015625 -33.171875 C 3.398438 -33.179688 3.71875 -33.1875 3.96875 -33.1875 L 22.5625 -33.1875 C 23.238281 -33.1875 23.785156 -32.972656 24.203125 -32.546875 C 24.628906 -32.128906 24.84375 -31.582031 24.84375 -30.90625 L 24.84375 -24.3125 C 24.84375 -23.914062 24.816406 -23.507812 24.765625 -23.09375 C 24.722656 -22.675781 24.585938 -22.332031 24.359375 -22.0625 C 24.128906 -21.800781 23.742188 -21.671875 23.203125 -21.671875 C 22.648438 -21.671875 22.109375 -21.84375 21.578125 -22.1875 C 21.046875 -22.53125 20.492188 -22.953125 19.921875 -23.453125 C 19.347656 -23.960938 18.710938 -24.46875 18.015625 -24.96875 C 17.316406 -25.46875 16.53125 -25.890625 15.65625 -26.234375 C 14.789062 -26.578125 13.796875 -26.75 12.671875 -26.75 C 12.242188 -26.75 11.929688 -26.613281 11.734375 -26.34375 C 11.546875 -26.082031 11.425781 -25.710938 11.375 -25.234375 C 11.332031 -24.753906 11.3125 -24.203125 11.3125 -23.578125 C 11.3125 -22.734375 11.378906 -22.039062 11.515625 -21.5 C 11.660156 -20.96875 11.953125 -20.582031 12.390625 -20.34375 C 12.835938 -20.113281 13.515625 -20.023438 14.421875 -20.078125 C 15.117188 -20.117188 15.71875 -20.1875 16.21875 -20.28125 C 16.71875 -20.382812 17.179688 -20.484375 17.609375 -20.578125 C 18.035156 -20.671875 18.488281 -20.71875 18.96875 -20.71875 C 19.582031 -20.71875 20.007812 -20.515625 20.25 -20.109375 C 20.5 -19.710938 20.625 -19.296875 20.625 -18.859375 L 20.625 -14.21875 C 20.625 -13.789062 20.5 -13.375 20.25 -12.96875 C 20.007812 -12.5625 19.582031 -12.359375 18.96875 -12.359375 C 18.488281 -12.359375 18.035156 -12.398438 17.609375 -12.484375 C 17.179688 -12.578125 16.71875 -12.675781 16.21875 -12.78125 C 15.71875 -12.894531 15.117188 -12.96875 14.421875 -13 C 13.546875 -13.039062 12.882812 -12.953125 12.4375 -12.734375 C 12 -12.515625 11.703125 -12.148438 11.546875 -11.640625 C 11.390625 -11.128906 11.3125 -10.453125 11.3125 -9.609375 C 11.3125 -8.992188 11.332031 -8.441406 11.375 -7.953125 C 11.425781 -7.472656 11.546875 -7.097656 11.734375 -6.828125 C 11.929688 -6.566406 12.242188 -6.4375 12.671875 -6.4375 C 13.796875 -6.4375 14.789062 -6.609375 15.65625 -6.953125 C 16.53125 -7.296875 17.316406 -7.71875 18.015625 -8.21875 C 18.710938 -8.726562 19.347656 -9.234375 19.921875 -9.734375 C 20.492188 -10.234375 21.046875 -10.65625 21.578125 -11 C 22.109375 -11.351562 22.648438 -11.53125 23.203125 -11.53125 C 23.742188 -11.53125 24.128906 -11.394531 24.359375 -11.125 C 24.585938 -10.851562 24.722656 -10.515625 24.765625 -10.109375 C 24.816406 -9.703125 24.84375 -9.289062 24.84375 -8.875 L 24.84375 -2.28125 C 24.84375 -1.601562 24.628906 -1.050781 24.203125 -0.625 C 23.785156 -0.207031 23.238281 0 22.5625 0 L 3.59375 0 C 3.351562 0 3.054688 0 2.703125 0 C 2.359375 -0.0078125 2.015625 -0.0703125 1.671875 -0.1875 C 1.328125 -0.3125 1.039062 -0.515625 0.8125 -0.796875 C 0.582031 -1.078125 0.46875 -1.492188 0.46875 -2.046875 C 0.46875 -2.835938 0.535156 -3.554688 0.671875 -4.203125 C 0.804688 -4.859375 0.976562 -5.539062 1.1875 -6.25 C 1.394531 -6.96875 1.601562 -7.796875 1.8125 -8.734375 C 2.03125 -9.679688 2.207031 -10.820312 2.34375 -12.15625 C 2.488281 -13.5 2.5625 -15.132812 2.5625 -17.0625 Z M 2.5625 -17.0625 "/></g></g></g><g fill="#014871" fill-opacity="1"><g transform="translate(84.907015, 50.835405)"><g><path d="M 0.46875 -31.140625 C 0.46875 -31.691406 0.597656 -32.109375 0.859375 -32.390625 C 1.128906 -32.671875 1.457031 -32.867188 1.84375 -32.984375 C 2.238281 -33.109375 2.628906 -33.171875 3.015625 -33.171875 C 3.398438 -33.179688 3.71875 -33.1875 3.96875 -33.1875 L 9.90625 -33.1875 C 10.15625 -33.1875 10.472656 -33.179688 10.859375 -33.171875 C 11.242188 -33.171875 11.628906 -33.109375 12.015625 -32.984375 C 12.410156 -32.867188 12.738281 -32.671875 13 -32.390625 C 13.269531 -32.109375 13.40625 -31.691406 13.40625 -31.140625 C 13.40625 -30.535156 13.351562 -29.988281 13.25 -29.5 C 13.15625 -29.007812 13.023438 -28.515625 12.859375 -28.015625 C 12.703125 -27.515625 12.535156 -26.957031 12.359375 -26.34375 C 12.179688 -25.726562 12.007812 -25.003906 11.84375 -24.171875 C 11.6875 -23.347656 11.554688 -22.351562 11.453125 -21.1875 C 11.359375 -20.03125 11.3125 -18.65625 11.3125 -17.0625 L 11.3125 -9.609375 C 11.3125 -8.992188 11.332031 -8.441406 11.375 -7.953125 C 11.425781 -7.472656 11.546875 -7.097656 11.734375 -6.828125 C 11.929688 -6.566406 12.242188 -6.4375 12.671875 -6.4375 C 13.796875 -6.4375 14.789062 -6.609375 15.65625 -6.953125 C 16.53125 -7.296875 17.316406 -7.71875 18.015625 -8.21875 C 18.710938 -8.726562 19.347656 -9.234375 19.921875 -9.734375 C 20.492188 -10.234375 21.046875 -10.65625 21.578125 -11 C 22.109375 -11.351562 22.648438 -11.53125 23.203125 -11.53125 C 23.753906 -11.53125 24.144531 -11.382812 24.375 -11.09375 C 24.613281 -10.8125 24.75 -10.46875 24.78125 -10.0625 C 24.820312 -9.65625 24.84375 -9.257812 24.84375 -8.875 L 24.84375 -2.28125 C 24.84375 -1.601562 24.628906 -1.050781 24.203125 -0.625 C 23.785156 -0.207031 23.238281 0 22.5625 0 L 3.59375 0 C 3.351562 0 3.054688 0 2.703125 0 C 2.359375 -0.0078125 2.015625 -0.0703125 1.671875 -0.1875 C 1.328125 -0.3125 1.039062 -0.515625 0.8125 -0.796875 C 0.582031 -1.078125 0.46875 -1.492188 0.46875 -2.046875 C 0.46875 -2.835938 0.535156 -3.554688 0.671875 -4.203125 C 0.804688 -4.859375 0.976562 -5.539062 1.1875 -6.25 C 1.394531 -6.96875 1.601562 -7.796875 1.8125 -8.734375 C 2.03125 -9.679688 2.207031 -10.820312 2.34375 -12.15625 C 2.488281 -13.5 2.5625 -15.132812 2.5625 -17.0625 C 2.5625 -18.65625 2.507812 -20.03125 2.40625 -21.1875 C 2.3125 -22.351562 2.179688 -23.347656 2.015625 -24.171875 C 1.859375 -25.003906 1.691406 -25.726562 1.515625 -26.34375 C 1.335938 -26.957031 1.164062 -27.515625 1 -28.015625 C 0.84375 -28.515625 0.710938 -29.007812 0.609375 -29.5 C 0.515625 -29.988281 0.46875 -30.535156 0.46875 -31.140625 Z M 0.46875 -31.140625 "/></g></g></g><g fill="#014871" fill-opacity="1"><g transform="translate(111.540974, 50.835405)"><g><path d="M 0.46875 -31.140625 C 0.46875 -31.691406 0.597656 -32.109375 0.859375 -32.390625 C 1.128906 -32.671875 1.457031 -32.867188 1.84375 -32.984375 C 2.238281 -33.109375 2.628906 -33.171875 3.015625 -33.171875 C 3.398438 -33.179688 3.71875 -33.1875 3.96875 -33.1875 L 9.90625 -33.1875 C 10.15625 -33.1875 10.472656 -33.179688 10.859375 -33.171875 C 11.242188 -33.171875 11.628906 -33.109375 12.015625 -32.984375 C 12.410156 -32.867188 12.738281 -32.671875 13 -32.390625 C 13.269531 -32.109375 13.40625 -31.691406 13.40625 -31.140625 C 13.40625 -30.535156 13.351562 -29.988281 13.25 -29.5 C 13.15625 -29.007812 13.023438 -28.515625 12.859375 -28.015625 C 12.703125 -27.515625 12.535156 -26.957031 12.359375 -26.34375 C 12.179688 -25.726562 12.007812 -25.003906 11.84375 -24.171875 C 11.6875 -23.347656 11.554688 -22.351562 11.453125 -21.1875 C 11.359375 -20.03125 11.3125 -18.65625 11.3125 -17.0625 L 11.3125 -9.609375 C 11.3125 -8.992188 11.332031 -8.441406 11.375 -7.953125 C 11.425781 -7.472656 11.546875 -7.097656 11.734375 -6.828125 C 11.929688 -6.566406 12.242188 -6.4375 12.671875 -6.4375 C 13.796875 -6.4375 14.789062 -6.609375 15.65625 -6.953125 C 16.53125 -7.296875 17.316406 -7.71875 18.015625 -8.21875 C 18.710938 -8.726562 19.347656 -9.234375 19.921875 -9.734375 C 20.492188 -10.234375 21.046875 -10.65625 21.578125 -11 C 22.109375 -11.351562 22.648438 -11.53125 23.203125 -11.53125 C 23.753906 -11.53125 24.144531 -11.382812 24.375 -11.09375 C 24.613281 -10.8125 24.75 -10.46875 24.78125 -10.0625 C 24.820312 -9.65625 24.84375 -9.257812 24.84375 -8.875 L 24.84375 -2.28125 C 24.84375 -1.601562 24.628906 -1.050781 24.203125 -0.625 C 23.785156 -0.207031 23.238281 0 22.5625 0 L 3.59375 0 C 3.351562 0 3.054688 0 2.703125 0 C 2.359375 -0.0078125 2.015625 -0.0703125 1.671875 -0.1875 C 1.328125 -0.3125 1.039062 -0.515625 0.8125 -0.796875 C 0.582031 -1.078125 0.46875 -1.492188 0.46875 -2.046875 C 0.46875 -2.835938 0.535156 -3.554688 0.671875 -4.203125 C 0.804688 -4.859375 0.976562 -5.539062 1.1875 -6.25 C 1.394531 -6.96875 1.601562 -7.796875 1.8125 -8.734375 C 2.03125 -9.679688 2.207031 -10.820312 2.34375 -12.15625 C 2.488281 -13.5 2.5625 -15.132812 2.5625 -17.0625 C 2.5625 -18.65625 2.507812 -20.03125 2.40625 -21.1875 C 2.3125 -22.351562 2.179688 -23.347656 2.015625 -24.171875 C 1.859375 -25.003906 1.691406 -25.726562 1.515625 -26.34375 C 1.335938 -26.957031 1.164062 -27.515625 1 -28.015625 C 0.84375 -28.515625 0.710938 -29.007812 0.609375 -29.5 C 0.515625 -29.988281 0.46875 -30.535156 0.46875 -31.140625 Z M 0.46875 -31.140625 "/></g></g></g><g fill="#014871" fill-opacity="1"><g transform="translate(138.174921, 50.835405)"><g><path d="M 2.5625 -16.59375 C 2.5625 -18.238281 2.507812 -19.65625 2.40625 -20.84375 C 2.3125 -22.03125 2.179688 -23.054688 2.015625 -23.921875 C 1.859375 -24.785156 1.691406 -25.53125 1.515625 -26.15625 C 1.335938 -26.789062 1.164062 -27.359375 1 -27.859375 C 0.84375 -28.367188 0.710938 -28.878906 0.609375 -29.390625 C 0.515625 -29.910156 0.46875 -30.476562 0.46875 -31.09375 C 0.46875 -31.65625 0.597656 -32.082031 0.859375 -32.375 C 1.128906 -32.664062 1.457031 -32.867188 1.84375 -32.984375 C 2.238281 -33.109375 2.628906 -33.171875 3.015625 -33.171875 C 3.398438 -33.179688 3.71875 -33.1875 3.96875 -33.1875 L 7.84375 -33.1875 C 8.113281 -33.1875 8.472656 -33.175781 8.921875 -33.15625 C 9.378906 -33.144531 9.820312 -33.054688 10.25 -32.890625 C 10.6875 -32.722656 10.992188 -32.414062 11.171875 -31.96875 L 11.171875 -31.984375 L 19.03125 -17.03125 C 19.019531 -18.613281 18.960938 -19.976562 18.859375 -21.125 C 18.765625 -22.269531 18.632812 -23.253906 18.46875 -24.078125 C 18.3125 -24.910156 18.144531 -25.628906 17.96875 -26.234375 C 17.789062 -26.847656 17.625 -27.40625 17.46875 -27.90625 C 17.3125 -28.414062 17.179688 -28.921875 17.078125 -29.421875 C 16.984375 -29.921875 16.9375 -30.476562 16.9375 -31.09375 C 16.9375 -31.65625 17.070312 -32.082031 17.34375 -32.375 C 17.613281 -32.664062 17.941406 -32.867188 18.328125 -32.984375 C 18.722656 -33.109375 19.113281 -33.171875 19.5 -33.171875 C 19.882812 -33.179688 20.195312 -33.1875 20.4375 -33.1875 L 24.34375 -33.1875 C 24.582031 -33.1875 24.894531 -33.179688 25.28125 -33.171875 C 25.664062 -33.171875 26.050781 -33.109375 26.4375 -32.984375 C 26.832031 -32.867188 27.164062 -32.664062 27.4375 -32.375 C 27.707031 -32.082031 27.84375 -31.65625 27.84375 -31.09375 C 27.84375 -30.476562 27.789062 -29.910156 27.6875 -29.390625 C 27.59375 -28.878906 27.460938 -28.367188 27.296875 -27.859375 C 27.140625 -27.359375 26.972656 -26.789062 26.796875 -26.15625 C 26.617188 -25.53125 26.445312 -24.785156 26.28125 -23.921875 C 26.125 -23.054688 25.992188 -22.03125 25.890625 -20.84375 C 25.796875 -19.65625 25.75 -18.238281 25.75 -16.59375 C 25.75 -14.945312 25.796875 -13.53125 25.890625 -12.34375 C 25.992188 -11.15625 26.125 -10.128906 26.28125 -9.265625 C 26.445312 -8.398438 26.617188 -7.648438 26.796875 -7.015625 C 26.972656 -6.390625 27.140625 -5.820312 27.296875 -5.3125 C 27.460938 -4.8125 27.59375 -4.304688 27.6875 -3.796875 C 27.789062 -3.296875 27.84375 -2.726562 27.84375 -2.09375 C 27.84375 -1.53125 27.707031 -1.101562 27.4375 -0.8125 C 27.164062 -0.519531 26.832031 -0.3125 26.4375 -0.1875 C 26.050781 -0.0703125 25.664062 -0.0078125 25.28125 0 C 24.894531 0 24.582031 0 24.34375 0 L 20.4375 0 C 20.238281 0 19.976562 0 19.65625 0 C 19.332031 -0.0078125 19 -0.046875 18.65625 -0.109375 C 18.3125 -0.171875 17.992188 -0.296875 17.703125 -0.484375 C 17.421875 -0.671875 17.210938 -0.929688 17.078125 -1.265625 L 9.234375 -16.140625 C 9.253906 -14.566406 9.3125 -13.207031 9.40625 -12.0625 C 9.507812 -10.914062 9.640625 -9.925781 9.796875 -9.09375 C 9.960938 -8.269531 10.132812 -7.550781 10.3125 -6.9375 C 10.488281 -6.320312 10.65625 -5.765625 10.8125 -5.265625 C 10.96875 -4.765625 11.09375 -4.265625 11.1875 -3.765625 C 11.289062 -3.265625 11.34375 -2.707031 11.34375 -2.09375 C 11.34375 -1.53125 11.207031 -1.101562 10.9375 -0.8125 C 10.664062 -0.519531 10.332031 -0.3125 9.9375 -0.1875 C 9.550781 -0.0703125 9.164062 -0.0078125 8.78125 0 C 8.394531 0 8.082031 0 7.84375 0 L 3.96875 0 C 3.71875 0 3.398438 0 3.015625 0 C 2.628906 -0.0078125 2.238281 -0.0703125 1.84375 -0.1875 C 1.457031 -0.3125 1.128906 -0.519531 0.859375 -0.8125 C 0.597656 -1.101562 0.46875 -1.53125 0.46875 -2.09375 C 0.46875 -2.726562 0.515625 -3.296875 0.609375 -3.796875 C 0.710938 -4.304688 0.84375 -4.8125 1 -5.3125 C 1.164062 -5.820312 1.335938 -6.390625 1.515625 -7.015625 C 1.691406 -7.648438 1.859375 -8.398438 2.015625 -9.265625 C 2.179688 -10.128906 2.3125 -11.15625 2.40625 -12.34375 C 2.507812 -13.53125 2.5625 -14.945312 2.5625 -16.59375 Z M 2.5625 -16.59375 "/></g></g></g><g fill="#014871" fill-opacity="1"><g transform="translate(167.573554, 50.835405)"><g><path d="M 2.5625 -17.0625 C 2.5625 -18.65625 2.507812 -20.03125 2.40625 -21.1875 C 2.3125 -22.351562 2.179688 -23.347656 2.015625 -24.171875 C 1.859375 -25.003906 1.691406 -25.726562 1.515625 -26.34375 C 1.335938 -26.957031 1.164062 -27.515625 1 -28.015625 C 0.84375 -28.515625 0.710938 -29.007812 0.609375 -29.5 C 0.515625 -29.988281 0.46875 -30.535156 0.46875 -31.140625 C 0.46875 -31.691406 0.597656 -32.109375 0.859375 -32.390625 C 1.128906 -32.671875 1.457031 -32.867188 1.84375 -32.984375 C 2.238281 -33.109375 2.628906 -33.171875 3.015625 -33.171875 C 3.398438 -33.179688 3.71875 -33.1875 3.96875 -33.1875 L 22.5625 -33.1875 C 23.238281 -33.1875 23.785156 -32.972656 24.203125 -32.546875 C 24.628906 -32.128906 24.84375 -31.582031 24.84375 -30.90625 L 24.84375 -24.3125 C 24.84375 -23.914062 24.816406 -23.507812 24.765625 -23.09375 C 24.722656 -22.675781 24.585938 -22.332031 24.359375 -22.0625 C 24.128906 -21.800781 23.742188 -21.671875 23.203125 -21.671875 C 22.648438 -21.671875 22.109375 -21.84375 21.578125 -22.1875 C 21.046875 -22.53125 20.492188 -22.953125 19.921875 -23.453125 C 19.347656 -23.960938 18.710938 -24.46875 18.015625 -24.96875 C 17.316406 -25.46875 16.53125 -25.890625 15.65625 -26.234375 C 14.789062 -26.578125 13.796875 -26.75 12.671875 -26.75 C 12.242188 -26.75 11.929688 -26.613281 11.734375 -26.34375 C 11.546875 -26.082031 11.425781 -25.710938 11.375 -25.234375 C 11.332031 -24.753906 11.3125 -24.203125 11.3125 -23.578125 C 11.3125 -22.734375 11.378906 -22.039062 11.515625 -21.5 C 11.660156 -20.96875 11.953125 -20.582031 12.390625 -20.34375 C 12.835938 -20.113281 13.515625 -20.023438 14.421875 -20.078125 C 15.117188 -20.117188 15.71875 -20.1875 16.21875 -20.28125 C 16.71875 -20.382812 17.179688 -20.484375 17.609375 -20.578125 C 18.035156 -20.671875 18.488281 -20.71875 18.96875 -20.71875 C 19.582031 -20.71875 20.007812 -20.515625 20.25 -20.109375 C 20.5 -19.710938 20.625 -19.296875 20.625 -18.859375 L 20.625 -14.21875 C 20.625 -13.789062 20.5 -13.375 20.25 -12.96875 C 20.007812 -12.5625 19.582031 -12.359375 18.96875 -12.359375 C 18.488281 -12.359375 18.035156 -12.398438 17.609375 -12.484375 C 17.179688 -12.578125 16.71875 -12.675781 16.21875 -12.78125 C 15.71875 -12.894531 15.117188 -12.96875 14.421875 -13 C 13.546875 -13.039062 12.882812 -12.953125 12.4375 -12.734375 C 12 -12.515625 11.703125 -12.148438 11.546875 -11.640625 C 11.390625 -11.128906 11.3125 -10.453125 11.3125 -9.609375 C 11.3125 -8.992188 11.332031 -8.441406 11.375 -7.953125 C 11.425781 -7.472656 11.546875 -7.097656 11.734375 -6.828125 C 11.929688 -6.566406 12.242188 -6.4375 12.671875 -6.4375 C 13.796875 -6.4375 14.789062 -6.609375 15.65625 -6.953125 C 16.53125 -7.296875 17.316406 -7.71875 18.015625 -8.21875 C 18.710938 -8.726562 19.347656 -9.234375 19.921875 -9.734375 C 20.492188 -10.234375 21.046875 -10.65625 21.578125 -11 C 22.109375 -11.351562 22.648438 -11.53125 23.203125 -11.53125 C 23.742188 -11.53125 24.128906 -11.394531 24.359375 -11.125 C 24.585938 -10.851562 24.722656 -10.515625 24.765625 -10.109375 C 24.816406 -9.703125 24.84375 -9.289062 24.84375 -8.875 L 24.84375 -2.28125 C 24.84375 -1.601562 24.628906 -1.050781 24.203125 -0.625 C 23.785156 -0.207031 23.238281 0 22.5625 0 L 3.59375 0 C 3.351562 0 3.054688 0 2.703125 0 C 2.359375 -0.0078125 2.015625 -0.0703125 1.671875 -0.1875 C 1.328125 -0.3125 1.039062 -0.515625 0.8125 -0.796875 C 0.582031 -1.078125 0.46875 -1.492188 0.46875 -2.046875 C 0.46875 -2.835938 0.535156 -3.554688 0.671875 -4.203125 C 0.804688 -4.859375 0.976562 -5.539062 1.1875 -6.25 C 1.394531 -6.96875 1.601562 -7.796875 1.8125 -8.734375 C 2.03125 -9.679688 2.207031 -10.820312 2.34375 -12.15625 C 2.488281 -13.5 2.5625 -15.132812 2.5625 -17.0625 Z M 2.5625 -17.0625 "/></g></g></g><g fill="#014871" fill-opacity="1"><g transform="translate(194.207501, 50.835405)"><g><path d="M -0.234375 -7.421875 C -0.234375 -8.523438 -0.00390625 -9.488281 0.453125 -10.3125 C 0.921875 -11.132812 1.519531 -11.78125 2.25 -12.25 C 2.976562 -12.71875 3.742188 -12.957031 4.546875 -12.96875 C 5.191406 -12.988281 5.789062 -12.851562 6.34375 -12.5625 C 6.90625 -12.269531 7.441406 -11.882812 7.953125 -11.40625 C 8.472656 -10.925781 8.984375 -10.414062 9.484375 -9.875 C 9.984375 -9.332031 10.484375 -8.816406 10.984375 -8.328125 C 11.484375 -7.847656 12 -7.453125 12.53125 -7.140625 C 13.0625 -6.835938 13.617188 -6.6875 14.203125 -6.6875 C 14.953125 -6.6875 15.488281 -6.878906 15.8125 -7.265625 C 16.132812 -7.648438 16.296875 -8.125 16.296875 -8.6875 C 16.296875 -9.332031 16.070312 -9.878906 15.625 -10.328125 C 15.175781 -10.773438 14.570312 -11.160156 13.8125 -11.484375 C 13.050781 -11.816406 12.191406 -12.132812 11.234375 -12.4375 C 10.285156 -12.75 9.304688 -13.082031 8.296875 -13.4375 C 7.296875 -13.800781 6.316406 -14.238281 5.359375 -14.75 C 4.410156 -15.269531 3.554688 -15.898438 2.796875 -16.640625 C 2.035156 -17.378906 1.429688 -18.269531 0.984375 -19.3125 C 0.546875 -20.351562 0.328125 -21.601562 0.328125 -23.0625 C 0.328125 -25.207031 0.851562 -27.054688 1.90625 -28.609375 C 2.96875 -30.171875 4.5 -31.378906 6.5 -32.234375 C 8.507812 -33.097656 10.929688 -33.53125 13.765625 -33.53125 C 15.066406 -33.53125 16.351562 -33.398438 17.625 -33.140625 C 18.90625 -32.878906 20.070312 -32.460938 21.125 -31.890625 C 22.175781 -31.328125 23.015625 -30.601562 23.640625 -29.71875 C 24.273438 -28.832031 24.59375 -27.769531 24.59375 -26.53125 C 24.59375 -25.632812 24.394531 -24.820312 24 -24.09375 C 23.613281 -23.363281 23.082031 -22.769531 22.40625 -22.3125 C 21.738281 -21.863281 20.984375 -21.609375 20.140625 -21.546875 C 19.421875 -21.503906 18.742188 -21.640625 18.109375 -21.953125 C 17.484375 -22.265625 16.882812 -22.675781 16.3125 -23.1875 C 15.75 -23.695312 15.1875 -24.203125 14.625 -24.703125 C 14.0625 -25.210938 13.484375 -25.644531 12.890625 -26 C 12.296875 -26.351562 11.671875 -26.53125 11.015625 -26.53125 C 10.460938 -26.53125 10.023438 -26.425781 9.703125 -26.21875 C 9.378906 -26.019531 9.148438 -25.773438 9.015625 -25.484375 C 8.890625 -25.191406 8.828125 -24.914062 8.828125 -24.65625 C 8.828125 -24.03125 9.0625 -23.5 9.53125 -23.0625 C 10 -22.625 10.625 -22.234375 11.40625 -21.890625 C 12.1875 -21.554688 13.066406 -21.226562 14.046875 -20.90625 C 15.035156 -20.582031 16.050781 -20.226562 17.09375 -19.84375 C 18.144531 -19.457031 19.160156 -18.988281 20.140625 -18.4375 C 21.128906 -17.894531 22.015625 -17.238281 22.796875 -16.46875 C 23.578125 -15.707031 24.203125 -14.785156 24.671875 -13.703125 C 25.140625 -12.617188 25.375 -11.332031 25.375 -9.84375 C 25.375 -8.257812 25.113281 -6.890625 24.59375 -5.734375 C 24.082031 -4.585938 23.390625 -3.617188 22.515625 -2.828125 C 21.640625 -2.046875 20.664062 -1.421875 19.59375 -0.953125 C 18.519531 -0.484375 17.40625 -0.148438 16.25 0.046875 C 15.09375 0.242188 13.992188 0.34375 12.953125 0.34375 C 11.734375 0.34375 10.5 0.265625 9.25 0.109375 C 8.007812 -0.0351562 6.820312 -0.289062 5.6875 -0.65625 C 4.550781 -1.019531 3.535156 -1.492188 2.640625 -2.078125 C 1.753906 -2.671875 1.050781 -3.410156 0.53125 -4.296875 C 0.0195312 -5.179688 -0.234375 -6.222656 -0.234375 -7.421875 Z M -0.234375 -7.421875 "/></g></g></g><g fill="#014871" fill-opacity="1"><g transform="translate(220.449786, 50.835405)"><g><path d="M -0.234375 -7.421875 C -0.234375 -8.523438 -0.00390625 -9.488281 0.453125 -10.3125 C 0.921875 -11.132812 1.519531 -11.78125 2.25 -12.25 C 2.976562 -12.71875 3.742188 -12.957031 4.546875 -12.96875 C 5.191406 -12.988281 5.789062 -12.851562 6.34375 -12.5625 C 6.90625 -12.269531 7.441406 -11.882812 7.953125 -11.40625 C 8.472656 -10.925781 8.984375 -10.414062 9.484375 -9.875 C 9.984375 -9.332031 10.484375 -8.816406 10.984375 -8.328125 C 11.484375 -7.847656 12 -7.453125 12.53125 -7.140625 C 13.0625 -6.835938 13.617188 -6.6875 14.203125 -6.6875 C 14.953125 -6.6875 15.488281 -6.878906 15.8125 -7.265625 C 16.132812 -7.648438 16.296875 -8.125 16.296875 -8.6875 C 16.296875 -9.332031 16.070312 -9.878906 15.625 -10.328125 C 15.175781 -10.773438 14.570312 -11.160156 13.8125 -11.484375 C 13.050781 -11.816406 12.191406 -12.132812 11.234375 -12.4375 C 10.285156 -12.75 9.304688 -13.082031 8.296875 -13.4375 C 7.296875 -13.800781 6.316406 -14.238281 5.359375 -14.75 C 4.410156 -15.269531 3.554688 -15.898438 2.796875 -16.640625 C 2.035156 -17.378906 1.429688 -18.269531 0.984375 -19.3125 C 0.546875 -20.351562 0.328125 -21.601562 0.328125 -23.0625 C 0.328125 -25.207031 0.851562 -27.054688 1.90625 -28.609375 C 2.96875 -30.171875 4.5 -31.378906 6.5 -32.234375 C 8.507812 -33.097656 10.929688 -33.53125 13.765625 -33.53125 C 15.066406 -33.53125 16.351562 -33.398438 17.625 -33.140625 C 18.90625 -32.878906 20.070312 -32.460938 21.125 -31.890625 C 22.175781 -31.328125 23.015625 -30.601562 23.640625 -29.71875 C 24.273438 -28.832031 24.59375 -27.769531 24.59375 -26.53125 C 24.59375 -25.632812 24.394531 -24.820312 24 -24.09375 C 23.613281 -23.363281 23.082031 -22.769531 22.40625 -22.3125 C 21.738281 -21.863281 20.984375 -21.609375 20.140625 -21.546875 C 19.421875 -21.503906 18.742188 -21.640625 18.109375 -21.953125 C 17.484375 -22.265625 16.882812 -22.675781 16.3125 -23.1875 C 15.75 -23.695312 15.1875 -24.203125 14.625 -24.703125 C 14.0625 -25.210938 13.484375 -25.644531 12.890625 -26 C 12.296875 -26.351562 11.671875 -26.53125 11.015625 -26.53125 C 10.460938 -26.53125 10.023438 -26.425781 9.703125 -26.21875 C 9.378906 -26.019531 9.148438 -25.773438 9.015625 -25.484375 C 8.890625 -25.191406 8.828125 -24.914062 8.828125 -24.65625 C 8.828125 -24.03125 9.0625 -23.5 9.53125 -23.0625 C 10 -22.625 10.625 -22.234375 11.40625 -21.890625 C 12.1875 -21.554688 13.066406 -21.226562 14.046875 -20.90625 C 15.035156 -20.582031 16.050781 -20.226562 17.09375 -19.84375 C 18.144531 -19.457031 19.160156 -18.988281 20.140625 -18.4375 C 21.128906 -17.894531 22.015625 -17.238281 22.796875 -16.46875 C 23.578125 -15.707031 24.203125 -14.785156 24.671875 -13.703125 C 25.140625 -12.617188 25.375 -11.332031 25.375 -9.84375 C 25.375 -8.257812 25.113281 -6.890625 24.59375 -5.734375 C 24.082031 -4.585938 23.390625 -3.617188 22.515625 -2.828125 C 21.640625 -2.046875 20.664062 -1.421875 19.59375 -0.953125 C 18.519531 -0.484375 17.40625 -0.148438 16.25 0.046875 C 15.09375 0.242188 13.992188 0.34375 12.953125 0.34375 C 11.734375 0.34375 10.5 0.265625 9.25 0.109375 C 8.007812 -0.0351562 6.820312 -0.289062 5.6875 -0.65625 C 4.550781 -1.019531 3.535156 -1.492188 2.640625 -2.078125 C 1.753906 -2.671875 1.050781 -3.410156 0.53125 -4.296875 C 0.0195312 -5.179688 -0.234375 -6.222656 -0.234375 -7.421875 Z M -0.234375 -7.421875 "/></g></g></g><g fill="#014871" fill-opacity="1"><g transform="translate(246.692071, 50.835405)"><g/></g></g><g fill="#014871" fill-opacity="1"><g transform="translate(256.553558, 50.835405)"><g><path d="M 13.765625 0.34375 C 11.597656 0.34375 9.722656 0.0625 8.140625 -0.5 C 6.566406 -1.070312 5.242188 -1.878906 4.171875 -2.921875 C 3.097656 -3.972656 2.238281 -5.203125 1.59375 -6.609375 C 0.945312 -8.015625 0.476562 -9.566406 0.1875 -11.265625 C -0.09375 -12.960938 -0.234375 -14.738281 -0.234375 -16.59375 C -0.234375 -18.445312 -0.09375 -20.222656 0.1875 -21.921875 C 0.476562 -23.617188 0.945312 -25.171875 1.59375 -26.578125 C 2.238281 -27.984375 3.097656 -29.207031 4.171875 -30.25 C 5.242188 -31.300781 6.566406 -32.109375 8.140625 -32.671875 C 9.722656 -33.242188 11.597656 -33.53125 13.765625 -33.53125 C 15.910156 -33.53125 17.71875 -33.269531 19.1875 -32.75 C 20.65625 -32.238281 21.828125 -31.5625 22.703125 -30.71875 C 23.578125 -29.875 24.207031 -28.953125 24.59375 -27.953125 C 24.988281 -26.953125 25.1875 -25.96875 25.1875 -25 C 25.1875 -24.15625 25.019531 -23.382812 24.6875 -22.6875 C 24.363281 -21.988281 23.929688 -21.382812 23.390625 -20.875 C 22.859375 -20.375 22.257812 -19.984375 21.59375 -19.703125 C 20.9375 -19.429688 20.285156 -19.296875 19.640625 -19.296875 C 18.804688 -19.296875 18.085938 -19.570312 17.484375 -20.125 C 16.878906 -20.675781 16.578125 -21.554688 16.578125 -22.765625 C 16.578125 -23.660156 16.503906 -24.382812 16.359375 -24.9375 C 16.210938 -25.488281 15.9375 -25.890625 15.53125 -26.140625 C 15.132812 -26.398438 14.546875 -26.53125 13.765625 -26.53125 C 12.796875 -26.53125 11.988281 -26.269531 11.34375 -25.75 C 10.707031 -25.238281 10.203125 -24.523438 9.828125 -23.609375 C 9.460938 -22.691406 9.195312 -21.632812 9.03125 -20.4375 C 8.875 -19.238281 8.796875 -17.957031 8.796875 -16.59375 C 8.796875 -15.226562 8.875 -13.945312 9.03125 -12.75 C 9.195312 -11.550781 9.460938 -10.492188 9.828125 -9.578125 C 10.203125 -8.660156 10.707031 -7.941406 11.34375 -7.421875 C 11.988281 -6.910156 12.796875 -6.65625 13.765625 -6.65625 C 14.546875 -6.65625 15.132812 -6.78125 15.53125 -7.03125 C 15.9375 -7.289062 16.210938 -7.695312 16.359375 -8.25 C 16.503906 -8.800781 16.578125 -9.523438 16.578125 -10.421875 C 16.578125 -11.648438 16.878906 -12.535156 17.484375 -13.078125 C 18.085938 -13.617188 18.804688 -13.890625 19.640625 -13.890625 C 20.285156 -13.890625 20.9375 -13.75 21.59375 -13.46875 C 22.257812 -13.195312 22.859375 -12.804688 23.390625 -12.296875 C 23.929688 -11.796875 24.363281 -11.195312 24.6875 -10.5 C 25.019531 -9.800781 25.1875 -9.03125 25.1875 -8.1875 C 25.1875 -7.21875 24.988281 -6.234375 24.59375 -5.234375 C 24.207031 -4.234375 23.578125 -3.3125 22.703125 -2.46875 C 21.828125 -1.625 20.65625 -0.941406 19.1875 -0.421875 C 17.71875 0.0859375 15.910156 0.34375 13.765625 0.34375 Z M 13.765625 0.34375 "/></g></g></g><g fill="#014871" fill-opacity="1"><g transform="translate(283.533094, 50.835405)"><g><path d="M 0.46875 -31.140625 C 0.46875 -31.691406 0.597656 -32.109375 0.859375 -32.390625 C 1.128906 -32.671875 1.457031 -32.867188 1.84375 -32.984375 C 2.238281 -33.109375 2.628906 -33.171875 3.015625 -33.171875 C 3.398438 -33.179688 3.71875 -33.1875 3.96875 -33.1875 L 9.90625 -33.1875 C 10.15625 -33.1875 10.472656 -33.179688 10.859375 -33.171875 C 11.242188 -33.171875 11.628906 -33.109375 12.015625 -32.984375 C 12.410156 -32.867188 12.738281 -32.671875 13 -32.390625 C 13.269531 -32.109375 13.40625 -31.691406 13.40625 -31.140625 C 13.40625 -30.535156 13.351562 -29.988281 13.25 -29.5 C 13.15625 -29.007812 13.023438 -28.515625 12.859375 -28.015625 C 12.703125 -27.515625 12.535156 -26.957031 12.359375 -26.34375 C 12.179688 -25.726562 12.007812 -25.003906 11.84375 -24.171875 C 11.6875 -23.347656 11.554688 -22.351562 11.453125 -21.1875 C 11.359375 -20.03125 11.3125 -18.65625 11.3125 -17.0625 L 11.3125 -9.609375 C 11.3125 -8.992188 11.332031 -8.441406 11.375 -7.953125 C 11.425781 -7.472656 11.546875 -7.097656 11.734375 -6.828125 C 11.929688 -6.566406 12.242188 -6.4375 12.671875 -6.4375 C 13.796875 -6.4375 14.789062 -6.609375 15.65625 -6.953125 C 16.53125 -7.296875 17.316406 -7.71875 18.015625 -8.21875 C 18.710938 -8.726562 19.347656 -9.234375 19.921875 -9.734375 C 20.492188 -10.234375 21.046875 -10.65625 21.578125 -11 C 22.109375 -11.351562 22.648438 -11.53125 23.203125 -11.53125 C 23.753906 -11.53125 24.144531 -11.382812 24.375 -11.09375 C 24.613281 -10.8125 24.75 -10.46875 24.78125 -10.0625 C 24.820312 -9.65625 24.84375 -9.257812 24.84375 -8.875 L 24.84375 -2.28125 C 24.84375 -1.601562 24.628906 -1.050781 24.203125 -0.625 C 23.785156 -0.207031 23.238281 0 22.5625 0 L 3.59375 0 C 3.351562 0 3.054688 0 2.703125 0 C 2.359375 -0.0078125 2.015625 -0.0703125 1.671875 -0.1875 C 1.328125 -0.3125 1.039062 -0.515625 0.8125 -0.796875 C 0.582031 -1.078125 0.46875 -1.492188 0.46875 -2.046875 C 0.46875 -2.835938 0.535156 -3.554688 0.671875 -4.203125 C 0.804688 -4.859375 0.976562 -5.539062 1.1875 -6.25 C 1.394531 -6.96875 1.601562 -7.796875 1.8125 -8.734375 C 2.03125 -9.679688 2.207031 -10.820312 2.34375 -12.15625 C 2.488281 -13.5 2.5625 -15.132812 2.5625 -17.0625 C 2.5625 -18.65625 2.507812 -20.03125 2.40625 -21.1875 C 2.3125 -22.351562 2.179688 -23.347656 2.015625 -24.171875 C 1.859375 -25.003906 1.691406 -25.726562 1.515625 -26.34375 C 1.335938 -26.957031 1.164062 -27.515625 1 -28.015625 C 0.84375 -28.515625 0.710938 -29.007812 0.609375 -29.5 C 0.515625 -29.988281 0.46875 -30.535156 0.46875 -31.140625 Z M 0.46875 -31.140625 "/></g></g></g><g fill="#014871" fill-opacity="1"><g transform="translate(310.167041, 50.835405)"><g><path d="M 0.46875 -31.09375 C 0.46875 -31.65625 0.597656 -32.082031 0.859375 -32.375 C 1.128906 -32.664062 1.457031 -32.867188 1.84375 -32.984375 C 2.238281 -33.109375 2.628906 -33.171875 3.015625 -33.171875 C 3.398438 -33.179688 3.71875 -33.1875 3.96875 -33.1875 L 9.90625 -33.1875 C 10.15625 -33.1875 10.472656 -33.179688 10.859375 -33.171875 C 11.242188 -33.171875 11.628906 -33.109375 12.015625 -32.984375 C 12.410156 -32.867188 12.738281 -32.664062 13 -32.375 C 13.269531 -32.082031 13.40625 -31.65625 13.40625 -31.09375 C 13.40625 -30.476562 13.351562 -29.910156 13.25 -29.390625 C 13.15625 -28.878906 13.023438 -28.367188 12.859375 -27.859375 C 12.703125 -27.359375 12.535156 -26.789062 12.359375 -26.15625 C 12.179688 -25.53125 12.007812 -24.785156 11.84375 -23.921875 C 11.6875 -23.054688 11.554688 -22.03125 11.453125 -20.84375 C 11.359375 -19.65625 11.3125 -18.238281 11.3125 -16.59375 C 11.3125 -16.34375 11.300781 -15.925781 11.28125 -15.34375 C 11.257812 -14.757812 11.25 -14.09375 11.25 -13.34375 C 11.257812 -12.601562 11.3125 -11.84375 11.40625 -11.0625 C 11.5 -10.289062 11.664062 -9.570312 11.90625 -8.90625 C 12.144531 -8.238281 12.476562 -7.703125 12.90625 -7.296875 C 13.332031 -6.890625 13.882812 -6.6875 14.5625 -6.6875 C 15.257812 -6.6875 15.816406 -6.890625 16.234375 -7.296875 C 16.660156 -7.703125 16.988281 -8.238281 17.21875 -8.90625 C 17.457031 -9.570312 17.625 -10.289062 17.71875 -11.0625 C 17.8125 -11.84375 17.863281 -12.601562 17.875 -13.34375 C 17.882812 -14.09375 17.875 -14.757812 17.84375 -15.34375 C 17.820312 -15.925781 17.8125 -16.34375 17.8125 -16.59375 C 17.8125 -18.238281 17.757812 -19.65625 17.65625 -20.84375 C 17.5625 -22.03125 17.429688 -23.054688 17.265625 -23.921875 C 17.109375 -24.785156 16.941406 -25.53125 16.765625 -26.15625 C 16.585938 -26.789062 16.414062 -27.359375 16.25 -27.859375 C 16.09375 -28.367188 15.960938 -28.878906 15.859375 -29.390625 C 15.765625 -29.910156 15.71875 -30.476562 15.71875 -31.09375 C 15.71875 -31.65625 15.851562 -32.082031 16.125 -32.375 C 16.394531 -32.664062 16.722656 -32.867188 17.109375 -32.984375 C 17.503906 -33.109375 17.894531 -33.171875 18.28125 -33.171875 C 18.664062 -33.179688 18.976562 -33.1875 19.21875 -33.1875 L 25.171875 -33.1875 C 25.410156 -33.1875 25.722656 -33.179688 26.109375 -33.171875 C 26.492188 -33.171875 26.878906 -33.109375 27.265625 -32.984375 C 27.660156 -32.867188 27.992188 -32.664062 28.265625 -32.375 C 28.535156 -32.082031 28.671875 -31.65625 28.671875 -31.09375 C 28.671875 -30.476562 28.617188 -29.910156 28.515625 -29.390625 C 28.421875 -28.878906 28.289062 -28.367188 28.125 -27.859375 C 27.96875 -27.359375 27.800781 -26.789062 27.625 -26.15625 C 27.445312 -25.53125 27.273438 -24.785156 27.109375 -23.921875 C 26.953125 -23.054688 26.820312 -22.03125 26.71875 -20.84375 C 26.625 -19.65625 26.578125 -18.238281 26.578125 -16.59375 C 26.578125 -15.75 26.578125 -14.890625 26.578125 -14.015625 C 26.585938 -13.148438 26.59375 -12.320312 26.59375 -11.53125 C 26.59375 -9.894531 26.398438 -8.359375 26.015625 -6.921875 C 25.628906 -5.484375 24.984375 -4.21875 24.078125 -3.125 C 23.171875 -2.039062 21.941406 -1.191406 20.390625 -0.578125 C 18.835938 0.0351562 16.894531 0.34375 14.5625 0.34375 C 12.226562 0.34375 10.285156 0.0351562 8.734375 -0.578125 C 7.179688 -1.191406 5.953125 -2.039062 5.046875 -3.125 C 4.140625 -4.21875 3.492188 -5.484375 3.109375 -6.921875 C 2.722656 -8.359375 2.53125 -9.894531 2.53125 -11.53125 C 2.53125 -12.320312 2.535156 -13.148438 2.546875 -14.015625 C 2.554688 -14.890625 2.5625 -15.75 2.5625 -16.59375 C 2.5625 -18.238281 2.507812 -19.65625 2.40625 -20.84375 C 2.3125 -22.03125 2.179688 -23.054688 2.015625 -23.921875 C 1.859375 -24.785156 1.691406 -25.53125 1.515625 -26.15625 C 1.335938 -26.789062 1.164062 -27.359375 1 -27.859375 C 0.84375 -28.367188 0.710938 -28.878906 0.609375 -29.390625 C 0.515625 -29.910156 0.46875 -30.476562 0.46875 -31.09375 Z M 0.46875 -31.09375 "/></g></g></g><g fill="#014871" fill-opacity="1"><g transform="translate(340.395096, 50.835405)"><g><path d="M 0.46875 -2.046875 C 0.46875 -2.835938 0.535156 -3.554688 0.671875 -4.203125 C 0.804688 -4.859375 0.976562 -5.539062 1.1875 -6.25 C 1.394531 -6.96875 1.601562 -7.796875 1.8125 -8.734375 C 2.03125 -9.679688 2.207031 -10.820312 2.34375 -12.15625 C 2.488281 -13.5 2.5625 -15.132812 2.5625 -17.0625 C 2.5625 -18.65625 2.507812 -20.03125 2.40625 -21.1875 C 2.3125 -22.351562 2.179688 -23.347656 2.015625 -24.171875 C 1.859375 -25.003906 1.691406 -25.726562 1.515625 -26.34375 C 1.335938 -26.957031 1.164062 -27.515625 1 -28.015625 C 0.84375 -28.515625 0.710938 -29.007812 0.609375 -29.5 C 0.515625 -29.988281 0.46875 -30.535156 0.46875 -31.140625 C 0.46875 -31.691406 0.597656 -32.109375 0.859375 -32.390625 C 1.128906 -32.671875 1.457031 -32.867188 1.84375 -32.984375 C 2.238281 -33.109375 2.628906 -33.171875 3.015625 -33.171875 C 3.398438 -33.179688 3.71875 -33.1875 3.96875 -33.1875 L 17.078125 -33.1875 C 18.660156 -33.1875 20.0625 -32.867188 21.28125 -32.234375 C 22.5 -31.597656 23.457031 -30.703125 24.15625 -29.546875 C 24.863281 -28.390625 25.21875 -27.046875 25.21875 -25.515625 C 25.21875 -24.847656 25.128906 -24.171875 24.953125 -23.484375 C 24.773438 -22.796875 24.484375 -22.128906 24.078125 -21.484375 C 23.671875 -20.847656 23.128906 -20.28125 22.453125 -19.78125 C 21.785156 -19.28125 20.960938 -18.898438 19.984375 -18.640625 C 19.597656 -18.535156 19.40625 -18.390625 19.40625 -18.203125 C 19.40625 -18.078125 19.554688 -17.945312 19.859375 -17.8125 C 20.171875 -17.675781 20.5625 -17.503906 21.03125 -17.296875 C 21.507812 -17.085938 22.019531 -16.796875 22.5625 -16.421875 C 23.113281 -16.046875 23.628906 -15.554688 24.109375 -14.953125 C 24.585938 -14.359375 24.976562 -13.609375 25.28125 -12.703125 C 25.59375 -11.796875 25.75 -10.6875 25.75 -9.375 C 25.75 -8.582031 25.632812 -7.75 25.40625 -6.875 C 25.1875 -6.007812 24.832031 -5.171875 24.34375 -4.359375 C 23.863281 -3.546875 23.222656 -2.804688 22.421875 -2.140625 C 21.617188 -1.484375 20.640625 -0.960938 19.484375 -0.578125 C 18.335938 -0.191406 16.988281 0 15.4375 0 L 3.59375 0 C 3.351562 0 3.054688 0 2.703125 0 C 2.359375 -0.0078125 2.015625 -0.0703125 1.671875 -0.1875 C 1.328125 -0.3125 1.039062 -0.515625 0.8125 -0.796875 C 0.582031 -1.078125 0.46875 -1.492188 0.46875 -2.046875 Z M 11.265625 -8.34375 C 11.265625 -7.6875 11.382812 -7.242188 11.625 -7.015625 C 11.875 -6.796875 12.21875 -6.6875 12.65625 -6.6875 C 13.40625 -6.6875 14.019531 -6.832031 14.5 -7.125 C 14.976562 -7.414062 15.347656 -7.78125 15.609375 -8.21875 C 15.878906 -8.664062 16.066406 -9.128906 16.171875 -9.609375 C 16.285156 -10.085938 16.34375 -10.507812 16.34375 -10.875 C 16.34375 -11.25 16.285156 -11.675781 16.171875 -12.15625 C 16.066406 -12.644531 15.878906 -13.109375 15.609375 -13.546875 C 15.347656 -13.992188 14.976562 -14.363281 14.5 -14.65625 C 14.019531 -14.945312 13.40625 -15.09375 12.65625 -15.09375 C 12.21875 -15.09375 11.875 -14.984375 11.625 -14.765625 C 11.382812 -14.554688 11.265625 -14.113281 11.265625 -13.4375 C 11.265625 -13.28125 11.269531 -13.03125 11.28125 -12.6875 C 11.289062 -12.34375 11.296875 -11.992188 11.296875 -11.640625 C 11.304688 -11.296875 11.3125 -11.039062 11.3125 -10.875 C 11.3125 -10.71875 11.304688 -10.46875 11.296875 -10.125 C 11.296875 -9.78125 11.289062 -9.4375 11.28125 -9.09375 C 11.269531 -8.757812 11.265625 -8.507812 11.265625 -8.34375 Z M 11.265625 -21.6875 C 11.265625 -21.207031 11.382812 -20.882812 11.625 -20.71875 C 11.875 -20.5625 12.21875 -20.484375 12.65625 -20.484375 C 13.40625 -20.484375 14.019531 -20.585938 14.5 -20.796875 C 14.976562 -21.003906 15.347656 -21.269531 15.609375 -21.59375 C 15.878906 -21.914062 16.066406 -22.242188 16.171875 -22.578125 C 16.285156 -22.921875 16.34375 -23.234375 16.34375 -23.515625 C 16.34375 -23.773438 16.285156 -24.078125 16.171875 -24.421875 C 16.066406 -24.765625 15.878906 -25.097656 15.609375 -25.421875 C 15.347656 -25.742188 14.976562 -26.007812 14.5 -26.21875 C 14.019531 -26.425781 13.40625 -26.53125 12.65625 -26.53125 C 12.21875 -26.53125 11.875 -26.445312 11.625 -26.28125 C 11.382812 -26.125 11.265625 -25.804688 11.265625 -25.328125 Z M 11.265625 -21.6875 "/></g></g></g><g fill="#014871" fill-opacity="1"><g transform="translate(334.079922, 67.829931)"><g><path d="M 15.796875 -8.296875 C 15.847656 -8.085938 15.882812 -7.910156 15.90625 -7.765625 C 15.9375 -7.628906 15.953125 -7.484375 15.953125 -7.328125 C 15.953125 -6.378906 15.6875 -5.429688 15.15625 -4.484375 C 14.625 -3.535156 13.863281 -2.644531 12.875 -1.8125 C 12.4375 -1.457031 11.992188 -1.132812 11.546875 -0.84375 C 11.097656 -0.5625 10.648438 -0.320312 10.203125 -0.125 C 9.753906 0.0625 9.316406 0.207031 8.890625 0.3125 C 8.460938 0.414062 8.054688 0.46875 7.671875 0.46875 C 7.148438 0.46875 6.671875 0.382812 6.234375 0.21875 C 5.804688 0.0507812 5.4375 -0.179688 5.125 -0.484375 C 4.820312 -0.796875 4.585938 -1.164062 4.421875 -1.59375 C 4.253906 -2.03125 4.171875 -2.507812 4.171875 -3.03125 C 4.171875 -3.539062 4.253906 -4.054688 4.421875 -4.578125 C 4.585938 -5.109375 4.828125 -5.628906 5.140625 -6.140625 C 5.453125 -6.648438 5.828125 -7.140625 6.265625 -7.609375 C 6.710938 -8.078125 7.207031 -8.503906 7.75 -8.890625 C 8.207031 -9.203125 8.703125 -9.492188 9.234375 -9.765625 C 9.773438 -10.035156 10.320312 -10.265625 10.875 -10.453125 C 11.425781 -10.648438 11.96875 -10.800781 12.5 -10.90625 C 13.039062 -11.019531 13.53125 -11.078125 13.96875 -11.078125 C 14.59375 -11.078125 15.085938 -10.925781 15.453125 -10.625 C 15.828125 -10.320312 16.015625 -9.914062 16.015625 -9.40625 C 16.015625 -9.070312 15.941406 -8.703125 15.796875 -8.296875 Z M 15.15625 -7.46875 C 15.175781 -7.582031 15.1875 -7.671875 15.1875 -7.734375 C 15.195312 -7.804688 15.203125 -7.875 15.203125 -7.9375 C 15.203125 -8.488281 15.050781 -8.929688 14.75 -9.265625 C 14.445312 -9.597656 14.039062 -9.765625 13.53125 -9.765625 C 13.125 -9.765625 12.6875 -9.671875 12.21875 -9.484375 C 11.75 -9.296875 11.28125 -9.046875 10.8125 -8.734375 C 10.351562 -8.429688 9.910156 -8.078125 9.484375 -7.671875 C 9.066406 -7.265625 8.695312 -6.835938 8.375 -6.390625 C 8.050781 -5.953125 7.789062 -5.503906 7.59375 -5.046875 C 7.40625 -4.597656 7.3125 -4.175781 7.3125 -3.78125 C 7.3125 -3.445312 7.414062 -3.171875 7.625 -2.953125 C 7.832031 -2.742188 8.097656 -2.640625 8.421875 -2.640625 C 8.691406 -2.640625 8.984375 -2.710938 9.296875 -2.859375 C 9.617188 -3.015625 9.9375 -3.21875 10.25 -3.46875 C 10.570312 -3.726562 10.878906 -4.023438 11.171875 -4.359375 C 11.460938 -4.691406 11.722656 -5.035156 11.953125 -5.390625 C 12.179688 -5.753906 12.363281 -6.109375 12.5 -6.453125 C 12.632812 -6.804688 12.703125 -7.140625 12.703125 -7.453125 C 12.703125 -8.035156 12.453125 -8.316406 11.953125 -8.296875 C 11.867188 -8.296875 11.828125 -8.3125 11.828125 -8.34375 C 11.828125 -8.414062 11.898438 -8.453125 12.046875 -8.453125 C 12.378906 -8.453125 12.648438 -8.316406 12.859375 -8.046875 C 13.078125 -7.785156 13.1875 -7.445312 13.1875 -7.03125 C 13.1875 -6.539062 13.035156 -6.023438 12.734375 -5.484375 C 12.441406 -4.941406 12.0625 -4.445312 11.59375 -4 C 11.125 -3.550781 10.609375 -3.179688 10.046875 -2.890625 C 9.492188 -2.609375 8.957031 -2.46875 8.4375 -2.46875 C 8.039062 -2.46875 7.71875 -2.601562 7.46875 -2.875 C 7.21875 -3.144531 7.09375 -3.5 7.09375 -3.9375 C 7.09375 -4.375 7.1875 -4.820312 7.375 -5.28125 C 7.5625 -5.75 7.816406 -6.203125 8.140625 -6.640625 C 8.460938 -7.085938 8.832031 -7.507812 9.25 -7.90625 C 9.675781 -8.300781 10.128906 -8.644531 10.609375 -8.9375 C 11.085938 -9.238281 11.578125 -9.472656 12.078125 -9.640625 C 12.578125 -9.816406 13.066406 -9.90625 13.546875 -9.90625 C 14.546875 -9.90625 15.269531 -9.425781 15.71875 -8.46875 C 15.820312 -8.75 15.875 -9.03125 15.875 -9.3125 C 15.875 -9.800781 15.710938 -10.179688 15.390625 -10.453125 C 15.078125 -10.734375 14.640625 -10.875 14.078125 -10.875 C 13.441406 -10.875 12.789062 -10.742188 12.125 -10.484375 C 11.46875 -10.234375 10.820312 -9.882812 10.1875 -9.4375 C 9.550781 -9 8.953125 -8.484375 8.390625 -7.890625 C 7.828125 -7.304688 7.332031 -6.6875 6.90625 -6.03125 C 6.476562 -5.375 6.144531 -4.691406 5.90625 -3.984375 C 5.664062 -3.285156 5.546875 -2.609375 5.546875 -1.953125 C 5.546875 -1.285156 5.742188 -0.738281 6.140625 -0.3125 C 6.535156 0.101562 7.050781 0.3125 7.6875 0.3125 C 8.144531 0.3125 8.628906 0.207031 9.140625 0 C 9.648438 -0.207031 10.160156 -0.488281 10.671875 -0.84375 C 11.179688 -1.195312 11.675781 -1.613281 12.15625 -2.09375 C 12.632812 -2.582031 13.070312 -3.101562 13.46875 -3.65625 C 13.863281 -4.207031 14.203125 -4.785156 14.484375 -5.390625 C 14.773438 -5.992188 14.984375 -6.59375 15.109375 -7.1875 C 15.023438 -7.039062 14.894531 -6.867188 14.71875 -6.671875 C 14.539062 -6.484375 14.359375 -6.300781 14.171875 -6.125 C 13.984375 -5.957031 13.804688 -5.816406 13.640625 -5.703125 C 13.472656 -5.585938 13.359375 -5.53125 13.296875 -5.53125 C 13.242188 -5.53125 13.21875 -5.546875 13.21875 -5.578125 C 13.21875 -5.597656 13.226562 -5.613281 13.25 -5.625 C 13.28125 -5.644531 13.34375 -5.6875 13.4375 -5.75 C 13.757812 -5.945312 14.070312 -6.191406 14.375 -6.484375 C 14.675781 -6.785156 14.9375 -7.113281 15.15625 -7.46875 Z M 13.671875 -13.734375 C 13.816406 -13.734375 13.929688 -13.679688 14.015625 -13.578125 C 14.109375 -13.484375 14.15625 -13.347656 14.15625 -13.171875 C 14.15625 -12.992188 14.109375 -12.8125 14.015625 -12.625 C 13.929688 -12.4375 13.820312 -12.265625 13.6875 -12.109375 C 13.550781 -11.960938 13.398438 -11.835938 13.234375 -11.734375 C 13.078125 -11.640625 12.914062 -11.59375 12.75 -11.59375 C 12.613281 -11.59375 12.5 -11.644531 12.40625 -11.75 C 12.3125 -11.851562 12.265625 -11.984375 12.265625 -12.140625 C 12.265625 -12.316406 12.304688 -12.5 12.390625 -12.6875 C 12.484375 -12.875 12.597656 -13.046875 12.734375 -13.203125 C 12.867188 -13.359375 13.019531 -13.484375 13.1875 -13.578125 C 13.351562 -13.679688 13.515625 -13.734375 13.671875 -13.734375 Z M 15.875 -13.734375 C 16.019531 -13.734375 16.132812 -13.679688 16.21875 -13.578125 C 16.300781 -13.484375 16.34375 -13.347656 16.34375 -13.171875 C 16.34375 -12.992188 16.300781 -12.8125 16.21875 -12.625 C 16.132812 -12.4375 16.023438 -12.265625 15.890625 -12.109375 C 15.753906 -11.960938 15.601562 -11.835938 15.4375 -11.734375 C 15.269531 -11.640625 15.109375 -11.59375 14.953125 -11.59375 C 14.816406 -11.59375 14.695312 -11.644531 14.59375 -11.75 C 14.5 -11.851562 14.453125 -11.984375 14.453125 -12.140625 C 14.453125 -12.316406 14.5 -12.5 14.59375 -12.6875 C 14.6875 -12.875 14.800781 -13.046875 14.9375 -13.203125 C 15.070312 -13.359375 15.21875 -13.484375 15.375 -13.578125 C 15.539062 -13.679688 15.707031 -13.734375 15.875 -13.734375 Z M 15.875 -13.734375 "/></g></g></g><g fill="#014871" fill-opacity="1"><g transform="translate(348.744521, 67.829931)"><g><path d="M 1.8125 -3.546875 C 1.90625 -3.703125 1.984375 -3.835938 2.046875 -3.953125 C 2.109375 -4.066406 2.203125 -4.238281 2.328125 -4.46875 C 2.554688 -4.425781 2.828125 -4.40625 3.140625 -4.40625 C 3.410156 -4.40625 3.675781 -4.425781 3.9375 -4.46875 L 2.671875 -2.3125 C 2.304688 -1.695312 2.035156 -1.222656 1.859375 -0.890625 C 1.691406 -0.566406 1.609375 -0.351562 1.609375 -0.25 C 1.609375 -0.1875 1.632812 -0.128906 1.6875 -0.078125 C 1.738281 -0.0234375 1.8125 0 1.90625 0 C 2.300781 0 2.796875 -0.359375 3.390625 -1.078125 C 3.992188 -1.804688 4.734375 -2.9375 5.609375 -4.46875 C 5.785156 -4.425781 6.023438 -4.40625 6.328125 -4.40625 C 6.453125 -4.40625 6.597656 -4.410156 6.765625 -4.421875 C 6.941406 -4.429688 7.097656 -4.445312 7.234375 -4.46875 L 6.328125 -2.953125 C 6.117188 -2.628906 5.925781 -2.3125 5.75 -2 C 5.570312 -1.695312 5.378906 -1.347656 5.171875 -0.953125 C 5.066406 -0.773438 4.984375 -0.628906 4.921875 -0.515625 C 4.859375 -0.398438 4.800781 -0.300781 4.75 -0.21875 C 4.707031 -0.144531 4.671875 -0.0820312 4.640625 -0.03125 C 4.617188 0.0195312 4.59375 0.078125 4.5625 0.140625 C 5.175781 -0.109375 5.738281 -0.445312 6.25 -0.875 C 6.769531 -1.3125 7.253906 -1.863281 7.703125 -2.53125 C 7.796875 -2.664062 7.863281 -2.734375 7.90625 -2.734375 C 7.9375 -2.734375 7.953125 -2.722656 7.953125 -2.703125 C 7.953125 -2.671875 7.945312 -2.648438 7.9375 -2.640625 L 7.796875 -2.4375 C 7.390625 -1.789062 6.890625 -1.222656 6.296875 -0.734375 C 5.703125 -0.253906 5.097656 0.0820312 4.484375 0.28125 C 4.148438 0.875 3.859375 1.363281 3.609375 1.75 C 3.359375 2.144531 3.125 2.488281 2.90625 2.78125 C 2.695312 3.070312 2.484375 3.328125 2.265625 3.546875 C 2.054688 3.773438 1.8125 4.019531 1.53125 4.28125 C 1.25 4.539062 0.945312 4.78125 0.625 5 C 0.300781 5.21875 -0.0195312 5.40625 -0.34375 5.5625 C -0.675781 5.71875 -0.992188 5.835938 -1.296875 5.921875 C -1.609375 6.015625 -1.890625 6.0625 -2.140625 6.0625 C -2.535156 6.0625 -2.859375 5.921875 -3.109375 5.640625 C -3.367188 5.359375 -3.5 5.003906 -3.5 4.578125 C -3.5 4.097656 -3.320312 3.617188 -2.96875 3.140625 C -2.613281 2.671875 -2.125 2.257812 -1.5 1.90625 C -1.257812 1.769531 -1.015625 1.644531 -0.765625 1.53125 C -0.523438 1.425781 -0.242188 1.328125 0.078125 1.234375 C 0.398438 1.140625 0.773438 1.039062 1.203125 0.9375 C 1.640625 0.832031 2.164062 0.710938 2.78125 0.578125 L 4.234375 -2.0625 C 3.722656 -1.289062 3.253906 -0.722656 2.828125 -0.359375 C 2.410156 0.00390625 2.019531 0.1875 1.65625 0.1875 C 1.351562 0.1875 1.097656 0.078125 0.890625 -0.140625 C 0.679688 -0.359375 0.578125 -0.632812 0.578125 -0.96875 C 0.578125 -1.070312 0.582031 -1.164062 0.59375 -1.25 C 0.613281 -1.332031 0.644531 -1.429688 0.6875 -1.546875 C 0.726562 -1.660156 0.785156 -1.785156 0.859375 -1.921875 C 0.941406 -2.066406 1.046875 -2.242188 1.171875 -2.453125 Z M 2.734375 0.703125 C 1.929688 0.867188 1.1875 1.101562 0.5 1.40625 C -0.1875 1.71875 -0.78125 2.066406 -1.28125 2.453125 C -1.789062 2.835938 -2.1875 3.253906 -2.46875 3.703125 C -2.757812 4.148438 -2.90625 4.59375 -2.90625 5.03125 C -2.90625 5.320312 -2.832031 5.550781 -2.6875 5.71875 C -2.539062 5.882812 -2.335938 5.96875 -2.078125 5.96875 C -1.742188 5.96875 -1.414062 5.882812 -1.09375 5.71875 C -0.769531 5.5625 -0.4375 5.300781 -0.09375 4.9375 C 0.25 4.582031 0.613281 4.117188 1 3.546875 C 1.394531 2.972656 1.832031 2.265625 2.3125 1.421875 Z M 2.734375 0.703125 "/></g></g></g><g fill="#014871" fill-opacity="1"><g transform="translate(355.93258, 67.829931)"><g><path d="M 4.46875 -5.4375 C 4.039062 -4.738281 3.660156 -4.101562 3.328125 -3.53125 C 2.992188 -2.957031 2.695312 -2.441406 2.4375 -1.984375 C 2.175781 -1.523438 1.953125 -1.117188 1.765625 -0.765625 C 1.578125 -0.410156 1.421875 -0.0976562 1.296875 0.171875 C 1.085938 0.109375 0.863281 0.078125 0.625 0.078125 C 0.507812 0.078125 0.367188 0.0859375 0.203125 0.109375 C 0.046875 0.128906 -0.0976562 0.148438 -0.234375 0.171875 C 0.0234375 -0.296875 0.269531 -0.734375 0.5 -1.140625 C 0.726562 -1.546875 0.953125 -1.945312 1.171875 -2.34375 C 1.398438 -2.738281 1.632812 -3.144531 1.875 -3.5625 C 2.113281 -3.976562 2.367188 -4.4375 2.640625 -4.9375 L 4.953125 -8.90625 C 5.160156 -8.820312 5.394531 -8.78125 5.65625 -8.78125 C 5.78125 -8.78125 5.929688 -8.796875 6.109375 -8.828125 C 6.296875 -8.859375 6.46875 -8.894531 6.625 -8.9375 Z M 3.734375 -2.578125 C 4.128906 -2.460938 4.410156 -2.332031 4.578125 -2.1875 C 4.753906 -2.050781 4.84375 -1.863281 4.84375 -1.625 C 4.84375 -1.539062 4.832031 -1.445312 4.8125 -1.34375 C 4.789062 -1.25 4.75 -1.113281 4.6875 -0.9375 C 4.632812 -0.71875 4.59375 -0.566406 4.5625 -0.484375 C 4.539062 -0.410156 4.53125 -0.34375 4.53125 -0.28125 C 4.53125 -0.101562 4.632812 -0.015625 4.84375 -0.015625 C 4.945312 -0.015625 5.085938 -0.078125 5.265625 -0.203125 C 5.441406 -0.328125 5.632812 -0.5 5.84375 -0.71875 C 6.050781 -0.9375 6.273438 -1.203125 6.515625 -1.515625 C 6.765625 -1.828125 7.003906 -2.164062 7.234375 -2.53125 C 7.328125 -2.664062 7.398438 -2.734375 7.453125 -2.734375 C 7.484375 -2.734375 7.5 -2.722656 7.5 -2.703125 C 7.5 -2.679688 7.453125 -2.609375 7.359375 -2.484375 C 7.273438 -2.367188 7.175781 -2.222656 7.0625 -2.046875 C 6.945312 -1.878906 6.816406 -1.703125 6.671875 -1.515625 C 6.523438 -1.328125 6.398438 -1.160156 6.296875 -1.015625 C 5.929688 -0.578125 5.601562 -0.265625 5.3125 -0.078125 C 5.03125 0.0976562 4.726562 0.1875 4.40625 0.1875 C 4.039062 0.1875 3.738281 0.0820312 3.5 -0.125 C 3.257812 -0.332031 3.140625 -0.59375 3.140625 -0.90625 C 3.140625 -1 3.160156 -1.101562 3.203125 -1.21875 C 3.242188 -1.332031 3.3125 -1.484375 3.40625 -1.671875 C 3.507812 -1.859375 3.578125 -2.003906 3.609375 -2.109375 C 3.648438 -2.210938 3.671875 -2.304688 3.671875 -2.390625 C 3.671875 -2.429688 3.664062 -2.46875 3.65625 -2.5 C 3.488281 -2.414062 3.320312 -2.375 3.15625 -2.375 C 2.96875 -2.375 2.875 -2.429688 2.875 -2.546875 C 2.875 -2.640625 2.953125 -2.6875 3.109375 -2.6875 C 3.171875 -2.6875 3.234375 -2.679688 3.296875 -2.671875 C 3.359375 -2.660156 3.457031 -2.644531 3.59375 -2.625 C 3.6875 -2.664062 3.773438 -2.710938 3.859375 -2.765625 C 3.941406 -2.828125 4.023438 -2.898438 4.109375 -2.984375 C 4.191406 -3.066406 4.289062 -3.175781 4.40625 -3.3125 C 4.53125 -3.445312 4.675781 -3.617188 4.84375 -3.828125 C 5.195312 -4.265625 5.539062 -4.484375 5.875 -4.484375 C 6.070312 -4.484375 6.226562 -4.414062 6.34375 -4.28125 C 6.46875 -4.15625 6.53125 -3.992188 6.53125 -3.796875 C 6.53125 -3.628906 6.5 -3.472656 6.4375 -3.328125 C 6.382812 -3.179688 6.316406 -3.050781 6.234375 -2.9375 C 6.148438 -2.820312 6.046875 -2.726562 5.921875 -2.65625 C 5.804688 -2.582031 5.691406 -2.546875 5.578125 -2.546875 C 5.429688 -2.546875 5.304688 -2.59375 5.203125 -2.6875 C 5.109375 -2.789062 5.0625 -2.921875 5.0625 -3.078125 C 5.0625 -3.398438 5.242188 -3.644531 5.609375 -3.8125 C 5.773438 -3.882812 5.875 -3.929688 5.90625 -3.953125 C 5.945312 -3.984375 5.96875 -4.023438 5.96875 -4.078125 C 5.96875 -4.140625 5.941406 -4.1875 5.890625 -4.21875 C 5.835938 -4.25 5.785156 -4.265625 5.734375 -4.265625 C 5.648438 -4.265625 5.578125 -4.253906 5.515625 -4.234375 C 5.453125 -4.210938 5.378906 -4.164062 5.296875 -4.09375 C 5.210938 -4.03125 5.109375 -3.929688 4.984375 -3.796875 C 4.867188 -3.671875 4.71875 -3.5 4.53125 -3.28125 C 4.375 -3.082031 4.238281 -2.9375 4.125 -2.84375 C 4.019531 -2.75 3.890625 -2.660156 3.734375 -2.578125 Z M 3.734375 -2.578125 "/></g></g></g><g fill="#014871" fill-opacity="1"><g transform="translate(362.661845, 67.829931)"><g><path d="M 6.21875 -2.84375 C 5.863281 -2.238281 5.585938 -1.769531 5.390625 -1.4375 C 5.203125 -1.113281 5.066406 -0.867188 4.984375 -0.703125 C 4.898438 -0.535156 4.847656 -0.429688 4.828125 -0.390625 C 4.816406 -0.347656 4.8125 -0.304688 4.8125 -0.265625 C 4.8125 -0.203125 4.84375 -0.140625 4.90625 -0.078125 C 4.96875 -0.0234375 5.046875 0 5.140625 0 C 5.691406 0 6.539062 -0.84375 7.6875 -2.53125 C 7.769531 -2.664062 7.835938 -2.734375 7.890625 -2.734375 C 7.921875 -2.734375 7.9375 -2.722656 7.9375 -2.703125 C 7.9375 -2.679688 7.894531 -2.609375 7.8125 -2.484375 C 7.726562 -2.367188 7.625 -2.222656 7.5 -2.046875 C 7.382812 -1.878906 7.253906 -1.703125 7.109375 -1.515625 C 6.960938 -1.328125 6.832031 -1.160156 6.71875 -1.015625 C 6.375 -0.585938 6.0625 -0.28125 5.78125 -0.09375 C 5.507812 0.09375 5.226562 0.1875 4.9375 0.1875 C 4.625 0.1875 4.359375 0.0703125 4.140625 -0.15625 C 3.921875 -0.382812 3.8125 -0.660156 3.8125 -0.984375 C 3.8125 -1.140625 3.828125 -1.273438 3.859375 -1.390625 C 3.898438 -1.503906 4.003906 -1.691406 4.171875 -1.953125 C 3.671875 -1.210938 3.210938 -0.671875 2.796875 -0.328125 C 2.390625 0.015625 2.007812 0.1875 1.65625 0.1875 C 1.351562 0.1875 1.097656 0.078125 0.890625 -0.140625 C 0.679688 -0.359375 0.578125 -0.628906 0.578125 -0.953125 C 0.578125 -1.054688 0.582031 -1.15625 0.59375 -1.25 C 0.613281 -1.34375 0.644531 -1.445312 0.6875 -1.5625 C 0.738281 -1.675781 0.800781 -1.800781 0.875 -1.9375 C 0.945312 -2.082031 1.039062 -2.253906 1.15625 -2.453125 L 1.8125 -3.546875 C 1.863281 -3.617188 1.90625 -3.6875 1.9375 -3.75 C 1.96875 -3.820312 2.007812 -3.898438 2.0625 -3.984375 C 2.082031 -4.035156 2.101562 -4.082031 2.125 -4.125 C 2.15625 -4.175781 2.222656 -4.289062 2.328125 -4.46875 C 2.453125 -4.445312 2.582031 -4.429688 2.71875 -4.421875 C 2.851562 -4.410156 2.988281 -4.40625 3.125 -4.40625 C 3.257812 -4.40625 3.390625 -4.410156 3.515625 -4.421875 C 3.640625 -4.429688 3.78125 -4.445312 3.9375 -4.46875 L 2.671875 -2.3125 C 1.960938 -1.15625 1.609375 -0.46875 1.609375 -0.25 C 1.609375 -0.0820312 1.707031 0 1.90625 0 C 2.300781 0 2.796875 -0.359375 3.390625 -1.078125 C 3.984375 -1.796875 4.71875 -2.925781 5.59375 -4.46875 C 5.769531 -4.425781 6.015625 -4.40625 6.328125 -4.40625 C 6.453125 -4.40625 6.597656 -4.410156 6.765625 -4.421875 C 6.929688 -4.429688 7.082031 -4.445312 7.21875 -4.46875 Z M 4.859375 -7.21875 C 5.003906 -7.21875 5.117188 -7.164062 5.203125 -7.0625 C 5.296875 -6.96875 5.34375 -6.832031 5.34375 -6.65625 C 5.34375 -6.476562 5.296875 -6.296875 5.203125 -6.109375 C 5.117188 -5.921875 5.007812 -5.75 4.875 -5.59375 C 4.738281 -5.445312 4.585938 -5.320312 4.421875 -5.21875 C 4.265625 -5.125 4.101562 -5.078125 3.9375 -5.078125 C 3.800781 -5.078125 3.6875 -5.128906 3.59375 -5.234375 C 3.5 -5.335938 3.453125 -5.46875 3.453125 -5.625 C 3.453125 -5.8125 3.492188 -5.992188 3.578125 -6.171875 C 3.671875 -6.359375 3.785156 -6.53125 3.921875 -6.6875 C 4.054688 -6.84375 4.207031 -6.96875 4.375 -7.0625 C 4.539062 -7.164062 4.703125 -7.21875 4.859375 -7.21875 Z M 7.0625 -7.21875 C 7.207031 -7.21875 7.320312 -7.164062 7.40625 -7.0625 C 7.488281 -6.96875 7.53125 -6.832031 7.53125 -6.65625 C 7.53125 -6.476562 7.488281 -6.296875 7.40625 -6.109375 C 7.320312 -5.921875 7.210938 -5.75 7.078125 -5.59375 C 6.941406 -5.445312 6.789062 -5.320312 6.625 -5.21875 C 6.457031 -5.125 6.296875 -5.078125 6.140625 -5.078125 C 6.003906 -5.078125 5.882812 -5.128906 5.78125 -5.234375 C 5.6875 -5.335938 5.640625 -5.46875 5.640625 -5.625 C 5.640625 -5.8125 5.6875 -5.992188 5.78125 -6.171875 C 5.875 -6.359375 5.988281 -6.53125 6.125 -6.6875 C 6.257812 -6.84375 6.40625 -6.96875 6.5625 -7.0625 C 6.726562 -7.164062 6.894531 -7.21875 7.0625 -7.21875 Z M 7.0625 -7.21875 "/></g></g></g><g fill="#014871" fill-opacity="1"><g transform="translate(321.624884, 67.829931)"><g><path d="M 3.015625 -2.953125 C 3.398438 -3.523438 3.734375 -3.925781 4.015625 -4.15625 C 4.304688 -4.382812 4.613281 -4.5 4.9375 -4.5 C 5.300781 -4.5 5.617188 -4.351562 5.890625 -4.0625 C 6.171875 -3.78125 6.3125 -3.4375 6.3125 -3.03125 C 6.3125 -2.675781 6.191406 -2.304688 5.953125 -1.921875 C 5.710938 -1.546875 5.410156 -1.203125 5.046875 -0.890625 C 4.679688 -0.578125 4.273438 -0.316406 3.828125 -0.109375 C 3.378906 0.0859375 2.953125 0.1875 2.546875 0.1875 C 2.078125 0.1875 1.6875 0.0390625 1.375 -0.25 C 1.070312 -0.539062 0.921875 -0.90625 0.921875 -1.34375 C 0.921875 -1.59375 0.988281 -1.890625 1.125 -2.234375 C 1.269531 -2.585938 1.523438 -3.066406 1.890625 -3.671875 L 4.953125 -8.859375 C 5.179688 -8.773438 5.441406 -8.734375 5.734375 -8.734375 C 5.828125 -8.734375 5.945312 -8.738281 6.09375 -8.75 C 6.25 -8.769531 6.390625 -8.796875 6.515625 -8.828125 Z M 4.78125 -4.390625 C 4.550781 -4.390625 4.285156 -4.25 3.984375 -3.96875 C 3.691406 -3.695312 3.367188 -3.3125 3.015625 -2.8125 C 2.671875 -2.300781 2.390625 -1.828125 2.171875 -1.390625 C 1.960938 -0.960938 1.859375 -0.648438 1.859375 -0.453125 C 1.859375 -0.304688 1.898438 -0.179688 1.984375 -0.078125 C 2.078125 0.015625 2.191406 0.0625 2.328125 0.0625 C 2.523438 0.0625 2.785156 -0.0859375 3.109375 -0.390625 C 3.429688 -0.703125 3.742188 -1.078125 4.046875 -1.515625 C 4.347656 -1.953125 4.613281 -2.394531 4.84375 -2.84375 C 5.070312 -3.289062 5.1875 -3.648438 5.1875 -3.921875 C 5.1875 -4.234375 5.050781 -4.390625 4.78125 -4.390625 Z M 4.78125 -4.390625 "/></g></g></g><g fill="#014871" fill-opacity="1"><g transform="translate(328.184228, 67.829931)"><g><path d="M 1.8125 -3.546875 C 1.90625 -3.703125 1.984375 -3.835938 2.046875 -3.953125 C 2.109375 -4.066406 2.203125 -4.238281 2.328125 -4.46875 C 2.554688 -4.425781 2.828125 -4.40625 3.140625 -4.40625 C 3.410156 -4.40625 3.675781 -4.425781 3.9375 -4.46875 L 2.671875 -2.3125 C 2.304688 -1.695312 2.035156 -1.222656 1.859375 -0.890625 C 1.691406 -0.566406 1.609375 -0.351562 1.609375 -0.25 C 1.609375 -0.1875 1.632812 -0.128906 1.6875 -0.078125 C 1.738281 -0.0234375 1.8125 0 1.90625 0 C 2.300781 0 2.796875 -0.359375 3.390625 -1.078125 C 3.992188 -1.804688 4.734375 -2.9375 5.609375 -4.46875 C 5.785156 -4.425781 6.023438 -4.40625 6.328125 -4.40625 C 6.453125 -4.40625 6.597656 -4.410156 6.765625 -4.421875 C 6.941406 -4.429688 7.097656 -4.445312 7.234375 -4.46875 L 6.328125 -2.953125 C 6.117188 -2.628906 5.925781 -2.3125 5.75 -2 C 5.570312 -1.695312 5.378906 -1.347656 5.171875 -0.953125 C 5.066406 -0.773438 4.984375 -0.628906 4.921875 -0.515625 C 4.859375 -0.398438 4.800781 -0.300781 4.75 -0.21875 C 4.707031 -0.144531 4.671875 -0.0820312 4.640625 -0.03125 C 4.617188 0.0195312 4.59375 0.078125 4.5625 0.140625 C 5.175781 -0.109375 5.738281 -0.445312 6.25 -0.875 C 6.769531 -1.3125 7.253906 -1.863281 7.703125 -2.53125 C 7.796875 -2.664062 7.863281 -2.734375 7.90625 -2.734375 C 7.9375 -2.734375 7.953125 -2.722656 7.953125 -2.703125 C 7.953125 -2.671875 7.945312 -2.648438 7.9375 -2.640625 L 7.796875 -2.4375 C 7.390625 -1.789062 6.890625 -1.222656 6.296875 -0.734375 C 5.703125 -0.253906 5.097656 0.0820312 4.484375 0.28125 C 4.148438 0.875 3.859375 1.363281 3.609375 1.75 C 3.359375 2.144531 3.125 2.488281 2.90625 2.78125 C 2.695312 3.070312 2.484375 3.328125 2.265625 3.546875 C 2.054688 3.773438 1.8125 4.019531 1.53125 4.28125 C 1.25 4.539062 0.945312 4.78125 0.625 5 C 0.300781 5.21875 -0.0195312 5.40625 -0.34375 5.5625 C -0.675781 5.71875 -0.992188 5.835938 -1.296875 5.921875 C -1.609375 6.015625 -1.890625 6.0625 -2.140625 6.0625 C -2.535156 6.0625 -2.859375 5.921875 -3.109375 5.640625 C -3.367188 5.359375 -3.5 5.003906 -3.5 4.578125 C -3.5 4.097656 -3.320312 3.617188 -2.96875 3.140625 C -2.613281 2.671875 -2.125 2.257812 -1.5 1.90625 C -1.257812 1.769531 -1.015625 1.644531 -0.765625 1.53125 C -0.523438 1.425781 -0.242188 1.328125 0.078125 1.234375 C 0.398438 1.140625 0.773438 1.039062 1.203125 0.9375 C 1.640625 0.832031 2.164062 0.710938 2.78125 0.578125 L 4.234375 -2.0625 C 3.722656 -1.289062 3.253906 -0.722656 2.828125 -0.359375 C 2.410156 0.00390625 2.019531 0.1875 1.65625 0.1875 C 1.351562 0.1875 1.097656 0.078125 0.890625 -0.140625 C 0.679688 -0.359375 0.578125 -0.632812 0.578125 -0.96875 C 0.578125 -1.070312 0.582031 -1.164062 0.59375 -1.25 C 0.613281 -1.332031 0.644531 -1.429688 0.6875 -1.546875 C 0.726562 -1.660156 0.785156 -1.785156 0.859375 -1.921875 C 0.941406 -2.066406 1.046875 -2.242188 1.171875 -2.453125 Z M 2.734375 0.703125 C 1.929688 0.867188 1.1875 1.101562 0.5 1.40625 C -0.1875 1.71875 -0.78125 2.066406 -1.28125 2.453125 C -1.789062 2.835938 -2.1875 3.253906 -2.46875 3.703125 C -2.757812 4.148438 -2.90625 4.59375 -2.90625 5.03125 C -2.90625 5.320312 -2.832031 5.550781 -2.6875 5.71875 C -2.539062 5.882812 -2.335938 5.96875 -2.078125 5.96875 C -1.742188 5.96875 -1.414062 5.882812 -1.09375 5.71875 C -0.769531 5.5625 -0.4375 5.300781 -0.09375 4.9375 C 0.25 4.582031 0.613281 4.117188 1 3.546875 C 1.394531 2.972656 1.832031 2.265625 2.3125 1.421875 Z M 2.734375 0.703125 "/></g></g></g></svg>